<?xml version="1.0" encoding="utf-8"?>
<svg viewBox="-28.107 -44.323 573.264 457.281" xmlns="http://www.w3.org/2000/svg">
  <title>rupdateproxy architecture</title>
  <g>
    <rect x="203.534" y="37.952" width="85.733" height="58.906" style="fill: none; stroke: rgb(0, 51, 153);"/>
    <text style="fill: rgb(51, 51, 51); font-size: 16px; white-space: pre; text-anchor: middle;" x="246.728" y="77.88" transform="matrix(1, 0, 0, 1, 0.705214, -12.693847)">Receiver<tspan x="246.72799682617188" dy="1em">​</tspan>module</text>
  </g>
  <g>
    <text style="fill: rgb(51, 51, 51); font-size: 16px; white-space: pre; text-anchor: middle;" x="241.384" y="300.071">External<tspan x="241.38400268554688" dy="1em">​</tspan>UPDATE<tspan x="241.38400268554688" dy="1em">​</tspan>server</text>
    <rect x="194.045" y="276.832" width="92.278" height="68.063" style="fill: none; stroke: rgb(0, 51, 153);"/>
  </g>
  <g transform="matrix(1, 0, 0, 1, 0, -22.251308)">
    <text style="fill: rgb(51, 51, 51); font-size: 16px; white-space: pre; text-anchor: middle;" x="243.348" y="185.541">UPDATE<tspan x="243.34800720214844" dy="1em">​</tspan>module<tspan x="243.34800720214844" dy="1em">​</tspan></text>
    <rect x="187.5" y="162.304" width="109.948" height="100.785" style="fill: none; stroke: rgb(0, 51, 153);"/>
    <text style="fill: rgb(51, 51, 51); font-size: 12px; white-space: pre;" transform="matrix(1, 0, 0, 1, -24.863962, -4.324167)"><tspan x="225.397" y="231.433">cache</tspan><tspan x="225.397" dy="1em">​</tspan><tspan>filter</tspan><tspan x="225.397" dy="1em">​</tspan><tspan>translate</tspan></text>
  </g>
  <g transform="matrix(1, 0, 0, 1, -10.471204, -14.397905)">
    <text style="fill: rgb(51, 51, 51); font-size: 16px; white-space: pre; text-anchor: middle;" x="94.133" y="80.175">Config<tspan x="94.13300323486328" dy="1em">​</tspan>module</text>
    <rect x="48.757" y="58.9" width="85.733" height="49.738" style="fill: none; stroke: rgb(0, 51, 153);"/>
  </g>
  <g transform="matrix(1, 0, 0, 1, 15.052356, -11.125654)">
    <text style="fill: rgb(51, 51, 51); font-size: 16px; white-space: pre; text-anchor: middle;" x="403.033" y="77.557">Interface<tspan x="403.0329895019531" dy="1em">​</tspan>module</text>
    <rect x="355.693" y="47.775" width="91.623" height="62.827" style="fill: none; stroke: rgb(0, 51, 153);"/>
  </g>
  <line style="stroke: rgb(0, 0, 0);" x1="123.69109970803865" y1="68.71727761557703" x2="204.18848205771465" y2="68.71727761557703"/>
  <line style="stroke: rgb(0, 0, 0);" x1="369.764398598105" y1="68.06282735257155" x2="289.26701624842906" y2="66.75392682656054"/>
  <line style="stroke: rgb(0, 0, 0);" x1="244.11" y1="96.204" x2="243.455" y2="139.398"/>
  <g>
    <line x1="240.183" y1="240.838" x2="240.183" y2="276.832" style="stroke: rgb(255, 0, 0);"/>
    <line x1="240.183" y1="276.178" x2="244.11" y2="270.288" style="stroke: rgb(255, 0, 0);"/>
    <line x1="239.529" y1="275.524" x2="235.602" y2="270.288" style="stroke: rgb(255, 0, 0);"/>
  </g>
  <line style="stroke: rgb(0, 0, 0);" x1="88.35078550574192" y1="94.89528813579686" x2="187.82722548257723" y2="190.4450265345992"/>
  <line style="stroke: rgb(0, 0, 0);" x1="414.2670164824787" y1="98.82198971382984" x2="297.12041940449495" y2="190.4450265345992"/>
  <line style="stroke: rgb(0, 0, 0);" x1="202.22513126869814" y1="68.71727761557703" x2="196.33507890164867" y2="73.952879719621"/>
  <line style="stroke: rgb(0, 0, 0);" x1="200.91623074268716" y1="68.06282735257155" x2="196.33507890164867" y2="64.13612577453857"/>
  <line style="stroke: rgb(0, 0, 0);" x1="289.9214665114345" y1="65.44502630054956" x2="299.0837701935115" y2="61.51832472251658"/>
  <line style="stroke: rgb(0, 0, 0);" x1="289.9214665114345" y1="66.75392682656054" x2="295.1570686154785" y2="73.29842945661551"/>
  <line style="stroke: rgb(0, 0, 0);" x1="298.429319930506" y1="189.79057627159372" x2="305.6282728235664" y2="187.82722548257723"/>
  <line style="stroke: rgb(0, 0, 0);" x1="297.77486966750047" y1="189.79057627159372" x2="300.39267071952247" y2="180.62827258951677"/>
  <line style="stroke: rgb(0, 0, 0);" x1="187.8272254825772" y1="189.13612600858823" x2="173.42931969645633" y2="189.13612600858823"/>
  <line style="stroke: rgb(0, 0, 0);" x1="185.86387469356072" y1="187.82722548257723" x2="183.24607364153877" y2="177.3560212744893"/>
  <line style="stroke: rgb(0, 0, 0);" x1="242.80104757503887" y1="140.70680654618155" x2="251.30890099411033" y2="132.8534033901156"/>
  <line style="stroke: rgb(0, 0, 0);" x1="242.9642937622027" y1="139.682317602262" x2="236.91424867784056" y2="132.96004528630414"/>
  <text style="fill: rgb(51, 51, 51); font-size: 12px; white-space: pre;" x="246.998" y="117.498">Service events</text>
  <text style="fill: rgb(51, 51, 51); font-size: 12px; white-space: pre;" x="122.967" y="48.943" transform="matrix(1, 0, 0, 1, 20.166817, -4.705591)">config<tspan x="122.96700286865234" dy="1em">​</tspan>events</text>
  <text style="fill: rgb(51, 51, 51); font-size: 12px; white-space: pre;" x="370.347" y="159.861" transform="matrix(1, 0, 0, 1, -1.990059, -1.990059)">interface<tspan x="370.34698486328125" dy="1em">​</tspan>events</text>
  <text style="fill: rgb(51, 51, 51); font-size: 12px; white-space: pre;" x="39.611" y="150.449" transform="matrix(1, 0, 0, 1, 35.157707, -4.643471)">config<tspan x="39.611000061035156" dy="1em">​</tspan>events</text>
  <text style="fill: rgb(51, 51, 51); font-size: 12px; white-space: pre;" x="250.018" y="260.695">DNS UPDATES</text>
  <text style="fill: rgb(51, 51, 51); font-size: 12px; white-space: pre;" x="122.967" y="48.943" transform="matrix(1, 0, 0, 1, 192.090561, -7.424863)">interface<tspan x="122.96700286865234" dy="1em">​</tspan>events</text>
  <text transform="matrix(1, 0, 0, 1, -2.702605, -63.781467)" style="fill: rgb(186, 218, 85); font-size: 12px; white-space: pre;"><tspan x="21.811" y="303.593">rupdateproxy</tspan><tspan x="21.811" dy="1em">​</tspan></text>
  <rect x="14.054" y="22.702" width="490.793" height="224.316" style="fill: none; stroke: rgb(186, 218, 85);"/>
  <line x1="247.0180624515448" y1="7.026772017221191" x2="246.4775415271432" y2="38.37698563251571" style="stroke: rgb(255, 0, 0);"/>
  <line x1="246.4775415271432" y1="36.755422859310826" x2="252.96379261996273" y2="30.269171766491272" style="stroke: rgb(255, 0, 0);"/>
  <line x1="245.93702060274157" y1="36.21490193490919" x2="239.99129043432364" y2="32.43125546409779" style="stroke: rgb(255, 0, 0);"/>
  <text style="fill: rgb(51, 51, 51); font-size: 12px; white-space: pre;" x="258.305" y="16.619">mDNS advertisements</text>
</svg>